# xmcd
#
# Track frame offsets:
#	183
#	14618
#	25010
#	40273
#	53308
#	69685
#	87490
#	99935
#	116493
#	132698
#	147488
#	156595
#	172803
#	183555
#	192978
#
# Disc length: 2725
#
# Revision: 2
# Processed by: cddbd v1.5.1PL0 Copyright (c) Steve Scherf et al.
# Submitted via: dBpowerAMP V4.0
# Normalized: r0:TRMNUM;r1:DSETVAR1,TDELIM( - ),TSWAP
#
DISCID=d10aa30f
DTITLE=Various Artist - Star-Weihnachten
DYEAR=1994
DGENRE=Christmas
TTITLE0=Peter Alexander - Weiße Weihnacht
TTITLE1=Andrea Jürgens - Zu Bethlehem geboren
TTITLE2=Costa Cordalis - Schöne Weihnachtszeit (Potpourri), Leise rieselt der Schnee, Kommet ihr Hirten
TTITLE3=Knut Kiesewetter and Familie - Die allerschönste Zeit
TTITLE4=Kristina Bach - Süßer die Glocken nie Klingen
TTITLE5=Ivan Rebroff - Heut' iet der Heiland für Euch geboren
TTITLE6=Roland Kaiser - Es ist ein Ros' entsprungen
TTITLE7=Freddy Quinn - Weihnachten im Schnee
TTITLE8=Roberto Blanco - Zum Fest bin ich zuhaus
TTITLE9=Heintje - Weißer Winterwald
TTITLE10=Tony Marshall - Laßt uns froh und munter sein
TTITLE11=Freddy Breck - Weihnachtskinder dieser Welt
TTITLE12=Udo Jürgens and Orchester Robert Opratko - Stille nacht, heilige Nacht
TTITLE13=Nicole - St. Niklas spannt den Schlitten an
TTITLE14=René Kollo - O du fröhliche
EXTD=weihnachten
EXTT0=
EXTT1=
EXTT2=
EXTT3=
EXTT4=
EXTT5=
EXTT6=
EXTT7=
EXTT8=
EXTT9=
EXTT10=
EXTT11=
EXTT12=
EXTT13=
EXTT14=
PLAYORDER=
